<svg xmlns="http://www.w3.org/2000/svg" xmlns:xlink="http://www.w3.org/1999/xlink" width="500" zoomAndPan="magnify" viewBox="0 0 375 374.999991" height="500" preserveAspectRatio="xMidYMid meet" version="1.0"><defs><clipPath id="21206935f4"><path d="M 0 17.726562 L 375 17.726562 L 375 357.476562 L 0 357.476562 Z M 0 17.726562 " clip-rule="nonzero"/></clipPath></defs><g clip-path="url(#21206935f4)"><path fill="#332c54" d="M 318.625 130.335938 L 302.800781 130.335938 C 242.351562 130.335938 208.414062 102.992188 178.472656 78.867188 C 154.472656 59.523438 121.457031 42.828125 90.273438 42.828125 L 57.28125 42.828125 C 40.511719 42.828125 26.054688 55.695312 25.226562 72.457031 C 25.175781 73.507812 25.179688 74.5625 25.234375 75.617188 C 25.289062 76.667969 25.394531 77.714844 25.554688 78.757812 C 25.71875 79.800781 25.929688 80.832031 26.195312 81.851562 C 26.460938 82.875 26.777344 83.878906 27.144531 84.867188 C 27.511719 85.855469 27.925781 86.824219 28.390625 87.769531 C 28.855469 88.714844 29.367188 89.636719 29.925781 90.53125 C 30.484375 91.425781 31.085938 92.289062 31.730469 93.125 C 32.375 93.957031 33.0625 94.753906 33.789062 95.519531 C 34.511719 96.285156 35.277344 97.007812 36.074219 97.695312 C 36.875 98.382812 37.707031 99.027344 38.574219 99.632812 C 39.4375 100.234375 40.332031 100.789062 41.25 101.304688 C 42.171875 101.816406 43.117188 102.28125 44.085938 102.695312 C 45.054688 103.113281 46.039062 103.480469 47.046875 103.796875 C 48.050781 104.113281 49.070312 104.375 50.101562 104.589844 C 51.132812 104.804688 52.175781 104.964844 53.222656 105.070312 C 54.269531 105.179688 55.324219 105.234375 56.375 105.234375 L 109.921875 105.234375 C 194.671875 105.234375 245.265625 144.03125 245.265625 209.015625 L 245.179688 209.015625 C 245.238281 209.015625 245.265625 209.042969 245.265625 209.101562 L 245.265625 299.316406 C 245.261719 301.253906 245.164062 303.191406 244.96875 305.117188 C 244.773438 307.046875 244.484375 308.964844 244.097656 310.863281 C 243.710938 312.765625 243.230469 314.640625 242.65625 316.492188 C 242.082031 318.34375 241.417969 320.164062 240.664062 321.949219 C 239.90625 323.734375 239.0625 325.480469 238.132812 327.179688 C 237.203125 328.882812 236.191406 330.535156 235.097656 332.132812 C 234.003906 333.734375 232.832031 335.277344 231.582031 336.761719 C 230.335938 338.242188 229.015625 339.660156 227.625 341.011719 C 226.234375 342.363281 224.78125 343.640625 223.265625 344.847656 C 221.746094 346.054688 220.171875 347.183594 218.542969 348.230469 C 216.910156 349.28125 215.234375 350.246094 213.507812 351.125 C 211.78125 352.007812 210.015625 352.796875 208.207031 353.503906 C 206.402344 354.207031 204.566406 354.820312 202.699219 355.339844 C 200.832031 355.859375 198.945312 356.289062 197.035156 356.617188 C 195.125 356.949219 193.203125 357.1875 191.269531 357.328125 C 189.335938 357.464844 187.402344 357.507812 185.464844 357.457031 C 153.820312 356.5625 129.007812 329.691406 129.007812 297.992188 L 129.007812 157.058594 C 129.007812 156.234375 129.089844 155.417969 129.25 154.609375 C 129.410156 153.800781 129.648438 153.015625 129.960938 152.253906 C 130.277344 151.492188 130.664062 150.769531 131.121094 150.085938 C 131.578125 149.398438 132.097656 148.765625 132.679688 148.183594 C 133.265625 147.601562 133.898438 147.078125 134.582031 146.621094 C 135.265625 146.164062 135.988281 145.777344 136.75 145.460938 C 137.511719 145.148438 138.296875 144.910156 139.105469 144.746094 C 139.910156 144.585938 140.726562 144.507812 141.550781 144.507812 C 142.375 144.507812 143.191406 144.585938 143.996094 144.746094 C 144.804688 144.910156 145.589844 145.148438 146.351562 145.460938 C 147.113281 145.777344 147.835938 146.164062 148.519531 146.621094 C 149.203125 147.078125 149.835938 147.601562 150.417969 148.183594 C 151.003906 148.765625 151.523438 149.398438 151.980469 150.085938 C 152.4375 150.769531 152.824219 151.492188 153.136719 152.253906 C 153.453125 153.015625 153.691406 153.800781 153.851562 154.609375 C 154.011719 155.417969 154.09375 156.234375 154.09375 157.058594 L 154.09375 298.285156 C 154.09375 317.953125 170.195312 333.835938 189.785156 332.277344 C 190.808594 332.191406 191.828125 332.0625 192.839844 331.882812 C 193.847656 331.703125 194.851562 331.480469 195.839844 331.207031 C 196.828125 330.9375 197.804688 330.621094 198.765625 330.257812 C 199.726562 329.894531 200.667969 329.488281 201.589844 329.039062 C 202.515625 328.589844 203.414062 328.097656 204.289062 327.5625 C 205.167969 327.03125 206.019531 326.457031 206.839844 325.84375 C 207.664062 325.230469 208.457031 324.578125 209.222656 323.894531 C 209.984375 323.207031 210.714844 322.484375 211.410156 321.730469 C 212.105469 320.976562 212.765625 320.191406 213.390625 319.375 C 214.011719 318.558594 214.597656 317.714844 215.140625 316.84375 C 215.6875 315.972656 216.1875 315.078125 216.652344 314.160156 C 217.113281 313.242188 217.53125 312.304688 217.902344 311.347656 C 218.277344 310.390625 218.605469 309.421875 218.890625 308.433594 C 219.175781 307.445312 219.410156 306.449219 219.601562 305.4375 C 219.792969 304.429688 219.9375 303.414062 220.035156 302.390625 C 220.128906 301.367188 220.179688 300.34375 220.179688 299.316406 L 220.179688 209.101562 C 220.183594 209.042969 220.214844 209.015625 220.273438 209.015625 L 220.179688 209.015625 C 220.179688 140.554688 151.09375 130.335938 109.921875 130.335938 L 57.570312 130.335938 C 26.953125 130.335938 1.042969 106.359375 0.105469 75.738281 C 0.0507812 73.859375 0.0898438 71.980469 0.222656 70.105469 C 0.355469 68.230469 0.582031 66.367188 0.902344 64.515625 C 1.21875 62.664062 1.628906 60.832031 2.132812 59.019531 C 2.636719 57.210938 3.226562 55.425781 3.90625 53.675781 C 4.585938 51.921875 5.351562 50.210938 6.203125 48.535156 C 7.058594 46.859375 7.988281 45.230469 9.003906 43.648438 C 10.019531 42.066406 11.109375 40.539062 12.277344 39.066406 C 13.445312 37.59375 14.683594 36.183594 15.992188 34.835938 C 17.300781 33.484375 18.671875 32.207031 20.109375 30.992188 C 21.542969 29.78125 23.039062 28.644531 24.585938 27.585938 C 26.136719 26.523438 27.734375 25.539062 29.382812 24.636719 C 31.03125 23.738281 32.722656 22.917969 34.453125 22.1875 C 36.179688 21.453125 37.941406 20.808594 39.738281 20.253906 C 41.53125 19.695312 43.347656 19.230469 45.191406 18.855469 C 47.03125 18.480469 48.886719 18.199219 50.753906 18.011719 C 52.625 17.824219 54.496094 17.726562 56.375 17.726562 L 90.277344 17.726562 C 130.28125 17.726562 168.835938 38.871094 194.21875 59.316406 C 222.265625 81.890625 251.199219 105.234375 302.816406 105.234375 L 317.730469 105.234375 C 334.503906 105.234375 348.953125 92.359375 349.777344 75.601562 C 349.832031 74.546875 349.828125 73.496094 349.773438 72.441406 C 349.71875 71.386719 349.613281 70.339844 349.449219 69.300781 C 349.289062 68.257812 349.078125 67.226562 348.8125 66.203125 C 348.546875 65.183594 348.230469 64.179688 347.863281 63.191406 C 347.496094 62.203125 347.082031 61.234375 346.617188 60.289062 C 346.152344 59.34375 345.640625 58.421875 345.082031 57.527344 C 344.523438 56.632812 343.921875 55.769531 343.277344 54.9375 C 342.632812 54.101562 341.945312 53.304688 341.21875 52.539062 C 340.492188 51.773438 339.730469 51.050781 338.929688 50.363281 C 338.132812 49.675781 337.300781 49.03125 336.433594 48.429688 C 335.570312 47.828125 334.675781 47.269531 333.753906 46.757812 C 332.832031 46.246094 331.890625 45.78125 330.921875 45.367188 C 329.953125 44.949219 328.964844 44.582031 327.960938 44.265625 C 326.957031 43.949219 325.9375 43.6875 324.90625 43.472656 C 323.871094 43.257812 322.832031 43.097656 321.785156 42.992188 C 320.734375 42.882812 319.683594 42.828125 318.628906 42.828125 L 195.820312 42.828125 C 194.996094 42.828125 194.183594 42.746094 193.375 42.585938 C 192.566406 42.425781 191.78125 42.1875 191.019531 41.871094 C 190.261719 41.558594 189.539062 41.171875 188.851562 40.714844 C 188.167969 40.253906 187.535156 39.734375 186.953125 39.152344 C 186.371094 38.570312 185.851562 37.9375 185.390625 37.25 C 184.933594 36.566406 184.546875 35.84375 184.234375 35.082031 C 183.917969 34.320312 183.679688 33.535156 183.519531 32.726562 C 183.359375 31.917969 183.277344 31.101562 183.277344 30.277344 C 183.277344 29.453125 183.359375 28.636719 183.519531 27.828125 C 183.679688 27.019531 183.917969 26.234375 184.234375 25.476562 C 184.546875 24.714844 184.933594 23.992188 185.390625 23.304688 C 185.851562 22.621094 186.371094 21.984375 186.953125 21.402344 C 187.535156 20.820312 188.167969 20.300781 188.851562 19.84375 C 189.539062 19.382812 190.261719 18.996094 191.019531 18.683594 C 191.78125 18.367188 192.566406 18.128906 193.375 17.96875 C 194.183594 17.808594 194.996094 17.726562 195.820312 17.726562 L 317.429688 17.726562 C 348.046875 17.726562 373.957031 41.707031 374.871094 72.328125 C 374.925781 74.203125 374.886719 76.082031 374.753906 77.957031 C 374.621094 79.832031 374.394531 81.691406 374.078125 83.546875 C 373.757812 85.398438 373.347656 87.226562 372.84375 89.039062 C 372.34375 90.847656 371.75 92.628906 371.070312 94.382812 C 370.390625 96.132812 369.625 97.847656 368.773438 99.523438 C 367.921875 101.195312 366.988281 102.824219 365.976562 104.40625 C 364.960938 105.988281 363.871094 107.515625 362.703125 108.988281 C 361.539062 110.460938 360.300781 111.871094 358.992188 113.21875 C 357.683594 114.570312 356.3125 115.847656 354.878906 117.058594 C 353.441406 118.269531 351.949219 119.40625 350.402344 120.46875 C 348.851562 121.53125 347.253906 122.515625 345.605469 123.417969 C 343.957031 124.320312 342.269531 125.136719 340.539062 125.871094 C 338.8125 126.601562 337.050781 127.246094 335.257812 127.804688 C 333.464844 128.363281 331.644531 128.828125 329.804688 129.203125 C 327.964844 129.578125 326.113281 129.859375 324.242188 130.050781 C 322.375 130.238281 320.5 130.335938 318.625 130.335938 Z M 318.625 130.335938 " fill-opacity="1" fill-rule="nonzero"/></g></svg>